<svg width="1200" height="800" viewBox="0 0 1200 800" fill="none" xmlns="http://www.w3.org/2000/svg">
  <defs>
    <linearGradient id="gradient1" x1="0%" y1="0%" x2="100%" y2="100%">
      <stop offset="0%" style="stop-color:#3b82f6;stop-opacity:0.1" />
      <stop offset="50%" style="stop-color:#d946ef;stop-opacity:0.05" />
      <stop offset="100%" style="stop-color:#06b6d4;stop-opacity:0.1" />
    </linearGradient>
    <pattern id="dots" x="0" y="0" width="40" height="40" patternUnits="userSpaceOnUse">
      <circle cx="20" cy="20" r="1.5" fill="#3b82f6" opacity="0.1"/>
    </pattern>
  </defs>
  
  <!-- Background gradient -->
  <rect width="1200" height="800" fill="url(#gradient1)"/>
  
  <!-- Dot pattern overlay -->
  <rect width="1200" height="800" fill="url(#dots)"/>
  
  <!-- Floating geometric shapes -->
  <circle cx="200" cy="150" r="60" fill="#3b82f6" opacity="0.05" class="animate-float"/>
  <rect x="800" y="100" width="80" height="80" rx="20" fill="#d946ef" opacity="0.05" transform="rotate(15 840 140)"/>
  <polygon points="1000,300 1050,250 1100,300 1050,350" fill="#06b6d4" opacity="0.05"/>
  
  <!-- Curved lines -->
  <path d="M0,400 Q300,300 600,400 T1200,400" stroke="#3b82f6" stroke-width="2" fill="none" opacity="0.1"/>
  <path d="M0,500 Q400,350 800,500 T1200,500" stroke="#d946ef" stroke-width="1.5" fill="none" opacity="0.08"/>
  
  <!-- Additional decorative elements -->
  <circle cx="100" cy="600" r="3" fill="#22c55e" opacity="0.3"/>
  <circle cx="300" cy="650" r="2" fill="#f59e0b" opacity="0.3"/>
  <circle cx="900" cy="600" r="4" fill="#ef4444" opacity="0.2"/>
  <circle cx="1100" cy="650" r="2.5" fill="#8b5cf6" opacity="0.3"/>
</svg>